<svg width="394" height="129" viewBox="0 0 394 129" fill="none" xmlns="http://www.w3.org/2000/svg">
<path opacity="0.72" d="M88.1757 21.5L107.55 31.8871C116.322 37.452 114.216 50.6632 107.551 61.4156L88.1172 50.9913C94.8366 40.1255 96.8747 26.7337 88.1757 21.5Z" fill="#00CBFE"/>
<path opacity="0.88" d="M80.1393 76.0087L60.7108 65.6587L88.1175 50.9913L107.551 61.4155L80.1393 76.0087Z" fill="#00CBFE"/>
<path d="M80.1663 46.4892L60.7378 36.1523L60.6837 95.1631L80.1122 105.5L80.1663 46.4892Z" fill="#00CBFE"/>
<path opacity="0.8" d="M80.1664 46.4892L60.7379 36.1523L88.176 21.5L107.55 31.8871L80.1664 46.4892Z" fill="#00CBFE"/>
<path opacity="0.72" d="M39.25 53.9913L19.816 64.4155C11.0445 69.9804 13.1497 83.1795 19.8149 93.933L39.2792 83.4897C32.5598 72.6238 30.551 59.225 39.25 53.9913Z" fill="#0049FC"/>
<path opacity="0.88" d="M47.2552 108.5L66.6837 98.1631L39.2792 83.4897L19.815 93.933L47.2552 108.5Z" fill="#0049FC"/>
<path d="M47.2011 49.4892L66.6296 39.1523L66.6837 98.1631L47.2552 108.5L47.2011 49.4892Z" fill="#0049FC"/>
<path opacity="0.8" d="M47.2012 49.4892L66.6297 39.1523L39.1917 24.5L19.8173 34.8871L47.2012 49.4892Z" fill="#0049FC"/>
<path d="M149.072 84.5C146.167 84.5 143.631 83.979 141.463 82.9369C139.338 81.8514 137.517 80.3535 136 78.443L142.829 71.865C143.609 72.9505 144.519 73.7754 145.56 74.3399C146.644 74.9043 147.858 75.1866 149.202 75.1866C150.503 75.1866 151.63 74.926 152.584 74.405C153.538 73.8406 154.296 73.059 154.86 72.0604C155.424 71.0183 155.705 69.7374 155.705 68.2178V37.8026H165.981V67.6316C165.981 71.0617 165.287 74.036 163.9 76.5543C162.512 79.0726 160.561 81.0265 158.047 82.4159C155.532 83.8053 152.54 84.5 149.072 84.5Z" fill="url(#paint0_linear_501_49252)"/>
<path d="M186.432 84.5C183.181 84.5 180.232 83.7836 177.588 82.3507C174.986 80.8745 172.927 78.8772 171.409 76.3589C169.892 73.8406 169.133 71.0183 169.133 67.8921C169.133 64.7659 169.892 61.9654 171.409 59.4905C172.927 57.0156 174.986 55.0617 177.588 53.6289C180.189 52.1526 183.137 51.4145 186.432 51.4145C189.727 51.4145 192.676 52.1309 195.277 53.5638C197.878 54.9966 199.938 56.9722 201.455 59.4905C202.973 61.9654 203.732 64.7659 203.732 67.8921C203.732 71.0183 202.973 73.8406 201.455 76.3589C199.938 78.8772 197.878 80.8745 195.277 82.3507C192.676 83.7836 189.727 84.5 186.432 84.5ZM186.432 75.4471C187.863 75.4471 189.12 75.1431 190.204 74.5353C191.288 73.884 192.112 72.9939 192.676 71.865C193.283 70.6927 193.586 69.3684 193.586 67.8921C193.586 66.4159 193.283 65.135 192.676 64.0495C192.069 62.9206 191.223 62.0522 190.139 61.4444C189.099 60.7931 187.863 60.4674 186.432 60.4674C185.045 60.4674 183.809 60.7931 182.725 61.4444C181.642 62.0522 180.796 62.9206 180.189 64.0495C179.582 65.1784 179.279 66.481 179.279 67.9573C179.279 69.3901 179.582 70.6927 180.189 71.865C180.796 72.9939 181.642 73.884 182.725 74.5353C183.809 75.1431 185.045 75.4471 186.432 75.4471Z" fill="url(#paint1_linear_501_49252)"/>
<path d="M224.895 84.4349C222.77 84.4349 220.819 84.0007 219.042 83.1323C217.264 82.2205 215.812 81.0265 214.685 79.5502C213.557 78.0305 212.907 76.3372 212.733 74.4701V61.1187C212.907 59.2517 213.557 57.6018 214.685 56.1689C215.812 54.6927 217.264 53.5421 219.042 52.7171C220.819 51.8921 222.77 51.4796 224.895 51.4796C227.886 51.4796 230.531 52.1961 232.829 53.6289C235.17 55.0617 236.991 57.0156 238.292 59.4905C239.636 61.9654 240.308 64.7877 240.308 67.9573C240.308 71.1269 239.636 73.9491 238.292 76.424C236.991 78.8989 235.17 80.8528 232.829 82.2856C230.531 83.7184 227.886 84.4349 224.895 84.4349ZM223.139 75.4471C224.526 75.4471 225.74 75.1214 226.781 74.4701C227.865 73.8189 228.71 72.9288 229.317 71.7999C229.924 70.671 230.228 69.3901 230.228 67.9573C230.228 66.481 229.924 65.1784 229.317 64.0495C228.71 62.9206 227.865 62.0522 226.781 61.4444C225.74 60.7931 224.526 60.4674 223.139 60.4674C221.752 60.4674 220.516 60.7931 219.432 61.4444C218.348 62.0522 217.503 62.9206 216.896 64.0495C216.332 65.1784 216.05 66.481 216.05 67.9573C216.05 69.4335 216.354 70.7361 216.961 71.865C217.568 72.9939 218.391 73.884 219.432 74.5353C220.516 75.1431 221.752 75.4471 223.139 75.4471ZM206.685 83.7836V36.5H216.636V59.8813L215.01 67.5665L216.505 75.2517V83.7836H206.685Z" fill="url(#paint2_linear_501_49252)"/>
<path d="M256.078 67.0455V59.0997H265.963C267.22 59.0997 268.369 58.8392 269.41 58.3182C270.45 57.7971 271.274 57.0373 271.881 56.0387C272.488 55.04 272.791 53.8243 272.791 52.3915C272.791 51.002 272.488 49.808 271.881 48.8094C271.274 47.8107 270.45 47.0509 269.41 46.5298C268.369 46.0088 267.22 45.7483 265.963 45.7483H256.078V37.8026H267.459C270.363 37.8026 272.986 38.3887 275.328 39.5611C277.669 40.7334 279.512 42.4267 280.856 44.6411C282.243 46.8121 282.937 49.3955 282.937 52.3915C282.937 55.3874 282.243 57.9925 280.856 60.2069C279.512 62.3779 277.669 64.0712 275.328 65.287C272.986 66.4593 270.363 67.0455 267.459 67.0455H256.078ZM248.273 83.7836V37.8026H258.484V83.7836H248.273Z" fill="url(#paint3_linear_501_49252)"/>
<path d="M300.084 84.5C296.833 84.5 293.884 83.7836 291.24 82.3507C288.638 80.8745 286.579 78.8772 285.061 76.3589C283.544 73.8406 282.785 71.0183 282.785 67.8921C282.785 64.7659 283.544 61.9654 285.061 59.4905C286.579 57.0156 288.638 55.0617 291.24 53.6289C293.841 52.1526 296.789 51.4145 300.084 51.4145C303.379 51.4145 306.328 52.1309 308.929 53.5638C311.53 54.9966 313.59 56.9722 315.107 59.4905C316.625 61.9654 317.383 64.7659 317.383 67.8921C317.383 71.0183 316.625 73.8406 315.107 76.3589C313.59 78.8772 311.53 80.8745 308.929 82.3507C306.328 83.7836 303.379 84.5 300.084 84.5ZM300.084 75.4471C301.515 75.4471 302.772 75.1431 303.856 74.5353C304.94 73.884 305.764 72.9939 306.328 71.865C306.935 70.6927 307.238 69.3684 307.238 67.8921C307.238 66.4159 306.935 65.135 306.328 64.0495C305.721 62.9206 304.875 62.0522 303.791 61.4444C302.751 60.7931 301.515 60.4674 300.084 60.4674C298.697 60.4674 297.461 60.7931 296.377 61.4444C295.293 62.0522 294.448 62.9206 293.841 64.0495C293.234 65.1784 292.93 66.481 292.93 67.9573C292.93 69.3901 293.234 70.6927 293.841 71.865C294.448 72.9939 295.293 73.884 296.377 74.5353C297.461 75.1431 298.697 75.4471 300.084 75.4471Z" fill="url(#paint4_linear_501_49252)"/>
<path d="M320.337 83.7836V52.1309H330.287V83.7836H320.337ZM330.287 66.3942L326.125 63.1377C326.949 59.4471 328.336 56.5814 330.287 54.5407C332.238 52.5 334.948 51.4796 338.417 51.4796C339.934 51.4796 341.257 51.7185 342.384 52.1961C343.554 52.6303 344.573 53.325 345.44 54.2802L339.522 61.77C339.089 61.2924 338.547 60.9233 337.896 60.6628C337.246 60.4023 336.509 60.272 335.685 60.272C334.038 60.272 332.715 60.7931 331.718 61.8351C330.764 62.8338 330.287 64.3535 330.287 66.3942Z" fill="url(#paint5_linear_501_49252)"/>
<path d="M352.896 83.7836V39.04H362.846V83.7836H352.896ZM347.588 60.5977V52.1309H368.154V60.5977H347.588Z" fill="url(#paint6_linear_501_49252)"/>
<defs>
<linearGradient id="paint0_linear_501_49252" x1="252.077" y1="36.5" x2="252.077" y2="84.5" gradientUnits="userSpaceOnUse">
<stop stop-color="#00CBFE"/>
<stop offset="1" stop-color="#0049FC"/>
</linearGradient>
<linearGradient id="paint1_linear_501_49252" x1="252.077" y1="36.5" x2="252.077" y2="84.5" gradientUnits="userSpaceOnUse">
<stop stop-color="#00CBFE"/>
<stop offset="1" stop-color="#0049FC"/>
</linearGradient>
<linearGradient id="paint2_linear_501_49252" x1="252.077" y1="36.5" x2="252.077" y2="84.5" gradientUnits="userSpaceOnUse">
<stop stop-color="#00CBFE"/>
<stop offset="1" stop-color="#0049FC"/>
</linearGradient>
<linearGradient id="paint3_linear_501_49252" x1="252.077" y1="36.5" x2="252.077" y2="84.5" gradientUnits="userSpaceOnUse">
<stop stop-color="#00CBFE"/>
<stop offset="1" stop-color="#0049FC"/>
</linearGradient>
<linearGradient id="paint4_linear_501_49252" x1="252.077" y1="36.5" x2="252.077" y2="84.5" gradientUnits="userSpaceOnUse">
<stop stop-color="#00CBFE"/>
<stop offset="1" stop-color="#0049FC"/>
</linearGradient>
<linearGradient id="paint5_linear_501_49252" x1="252.077" y1="36.5" x2="252.077" y2="84.5" gradientUnits="userSpaceOnUse">
<stop stop-color="#00CBFE"/>
<stop offset="1" stop-color="#0049FC"/>
</linearGradient>
<linearGradient id="paint6_linear_501_49252" x1="252.077" y1="36.5" x2="252.077" y2="84.5" gradientUnits="userSpaceOnUse">
<stop stop-color="#00CBFE"/>
<stop offset="1" stop-color="#0049FC"/>
</linearGradient>
</defs>
</svg>
